<mxfile host="app.diagrams.net" agent="Mozilla/5.0 (X11; Linux x86_64; rv:131.0) Gecko/20100101 Firefox/131.0" version="24.8.6">
  <diagram name="Page-1" id="Ox3zL68_iwcasz6dOxy_">
    <mxGraphModel dx="3147" dy="1510" grid="0" gridSize="10" guides="1" tooltips="1" connect="1" arrows="1" fold="1" page="0" pageScale="1" pageWidth="850" pageHeight="1100" math="0" shadow="0">
      <root>
        <mxCell id="0" />
        <mxCell id="1" parent="0" />
        <mxCell id="GhDUsiYMYTLdvU3jQH11-101" value="" style="rounded=0;whiteSpace=wrap;html=1;fillColor=#D6D6D6;strokeWidth=5;" parent="1" vertex="1">
          <mxGeometry x="590" y="1050" width="1350" height="1500" as="geometry" />
        </mxCell>
        <mxCell id="GhDUsiYMYTLdvU3jQH11-100" value="&lt;font style=&quot;font-size: 32px;&quot;&gt;Usuário&lt;/font&gt;" style="shape=umlActor;verticalLabelPosition=bottom;verticalAlign=top;html=1;strokeWidth=3;" parent="1" vertex="1">
          <mxGeometry x="250" y="1715" width="160" height="320" as="geometry" />
        </mxCell>
        <mxCell id="GhDUsiYMYTLdvU3jQH11-121" value="&lt;font style=&quot;font-size: 32px;&quot;&gt;Administrador&lt;/font&gt;" style="shape=umlActor;verticalLabelPosition=bottom;verticalAlign=top;html=1;strokeWidth=3;" parent="1" vertex="1">
          <mxGeometry x="2140" y="1715" width="160" height="320" as="geometry" />
        </mxCell>
        <mxCell id="GhDUsiYMYTLdvU3jQH11-58" value="&lt;font style=&quot;font-size: 32px;&quot;&gt;(Caso o Usuário já esteja seguindo outro Perfil)&lt;br&gt;&lt;/font&gt;" style="shape=note2;boundedLbl=1;whiteSpace=wrap;html=1;size=25;verticalAlign=top;align=center;strokeWidth=4;fillColor=#ffcccc;strokeColor=#36393d;" parent="1" vertex="1">
          <mxGeometry x="615" y="2025" width="330" height="160" as="geometry" />
        </mxCell>
        <mxCell id="GhDUsiYMYTLdvU3jQH11-122" value="" style="endArrow=none;html=1;rounded=0;strokeWidth=5;exitX=0.456;exitY=0.996;exitDx=0;exitDy=0;exitPerimeter=0;" parent="1" edge="1" source="GhDUsiYMYTLdvU3jQH11-46">
          <mxGeometry width="50" height="50" relative="1" as="geometry">
            <mxPoint x="1570" y="1997" as="sourcePoint" />
            <mxPoint x="2230" y="2100" as="targetPoint" />
            <Array as="points">
              <mxPoint x="1570" y="2445" />
              <mxPoint x="1980" y="2445" />
              <mxPoint x="2230" y="2445" />
            </Array>
          </mxGeometry>
        </mxCell>
        <mxCell id="GhDUsiYMYTLdvU3jQH11-36" value="&lt;font style=&quot;font-size: 32px;&quot;&gt;Visualizar Outras Postagens&lt;br&gt;&lt;/font&gt;" style="ellipse;whiteSpace=wrap;html=1;strokeWidth=3;fillColor=#ffff88;strokeColor=#36393d;" parent="1" vertex="1">
          <mxGeometry x="1425" y="1345" width="320" height="160" as="geometry" />
        </mxCell>
        <mxCell id="GhDUsiYMYTLdvU3jQH11-38" value="&lt;font style=&quot;font-size: 32px;&quot;&gt;Criar Postagem&lt;br&gt;&lt;/font&gt;" style="ellipse;whiteSpace=wrap;html=1;strokeWidth=3;fillColor=#ffff88;strokeColor=#36393d;" parent="1" vertex="1">
          <mxGeometry x="965" y="1185" width="320" height="160" as="geometry" />
        </mxCell>
        <mxCell id="GhDUsiYMYTLdvU3jQH11-43" value="&lt;font style=&quot;font-size: 32px;&quot;&gt;Excluir Postagem&lt;br&gt;&lt;/font&gt;" style="ellipse;whiteSpace=wrap;html=1;strokeWidth=3;fillColor=#ffff88;strokeColor=#36393d;" parent="1" vertex="1">
          <mxGeometry x="965" y="1388" width="320" height="160" as="geometry" />
        </mxCell>
        <mxCell id="GhDUsiYMYTLdvU3jQH11-64" value="" style="edgeStyle=orthogonalEdgeStyle;rounded=0;orthogonalLoop=1;jettySize=auto;html=1;" parent="1" source="GhDUsiYMYTLdvU3jQH11-45" target="GhDUsiYMYTLdvU3jQH11-36" edge="1">
          <mxGeometry relative="1" as="geometry" />
        </mxCell>
        <mxCell id="GhDUsiYMYTLdvU3jQH11-45" value="&lt;font style=&quot;font-size: 32px;&quot;&gt;Curtir Postagem&lt;br&gt;&lt;/font&gt;" style="ellipse;whiteSpace=wrap;html=1;strokeWidth=3;fillColor=#ffff88;strokeColor=#36393d;" parent="1" vertex="1">
          <mxGeometry x="1425" y="1555" width="320" height="160" as="geometry" />
        </mxCell>
        <mxCell id="GhDUsiYMYTLdvU3jQH11-46" value="&lt;font style=&quot;font-size: 32px;&quot;&gt;Remover Curtida&lt;br&gt;&lt;/font&gt;" style="ellipse;whiteSpace=wrap;html=1;strokeWidth=3;fillColor=#ffff88;strokeColor=#36393d;" parent="1" vertex="1">
          <mxGeometry x="1425" y="1835" width="320" height="160" as="geometry" />
        </mxCell>
        <mxCell id="GhDUsiYMYTLdvU3jQH11-47" value="&lt;font style=&quot;font-size: 32px;&quot;&gt;&amp;lt;&amp;lt;extend&amp;gt;&amp;gt;&lt;/font&gt;" style="html=1;verticalAlign=bottom;labelBackgroundColor=none;endArrow=open;endFill=0;dashed=1;rounded=0;strokeWidth=5;entryX=0.5;entryY=0;entryDx=0;entryDy=0;" parent="1" edge="1">
          <mxGeometry x="-0.5814" y="-101" width="160" relative="1" as="geometry">
            <mxPoint x="1584" y="1555" as="sourcePoint" />
            <mxPoint x="1584.23" y="1505" as="targetPoint" />
            <mxPoint as="offset" />
          </mxGeometry>
        </mxCell>
        <mxCell id="GhDUsiYMYTLdvU3jQH11-48" value="&lt;font style=&quot;font-size: 32px;&quot;&gt;&amp;lt;&amp;lt;extend&amp;gt;&amp;gt;&lt;/font&gt;" style="html=1;verticalAlign=bottom;labelBackgroundColor=none;endArrow=open;endFill=0;dashed=1;rounded=0;strokeWidth=5;exitX=1;exitY=0;exitDx=0;exitDy=0;entryX=0;entryY=1;entryDx=0;entryDy=0;" parent="1" source="GhDUsiYMYTLdvU3jQH11-51" target="GhDUsiYMYTLdvU3jQH11-36" edge="1">
          <mxGeometry x="-1" y="58" width="160" relative="1" as="geometry">
            <mxPoint x="1330" y="1645" as="sourcePoint" />
            <mxPoint x="1330.3600000000001" y="1755" as="targetPoint" />
            <mxPoint x="-14" y="19" as="offset" />
          </mxGeometry>
        </mxCell>
        <mxCell id="GhDUsiYMYTLdvU3jQH11-49" value="" style="endArrow=none;dashed=1;html=1;rounded=0;strokeWidth=5;entryX=0.5;entryY=0;entryDx=0;entryDy=0;entryPerimeter=0;" parent="1" target="GhDUsiYMYTLdvU3jQH11-50" edge="1">
          <mxGeometry width="50" height="50" relative="1" as="geometry">
            <mxPoint x="1585" y="1785" as="sourcePoint" />
            <mxPoint x="1815" y="2025" as="targetPoint" />
            <Array as="points">
              <mxPoint x="1815" y="1785" />
              <mxPoint x="1815" y="2005" />
              <mxPoint x="1750" y="2005" />
            </Array>
          </mxGeometry>
        </mxCell>
        <mxCell id="GhDUsiYMYTLdvU3jQH11-50" value="&lt;font style=&quot;font-size: 32px;&quot;&gt;(Caso o Usuário já tenha curtido alguma Postagem)&lt;br&gt;&lt;/font&gt;" style="shape=note2;boundedLbl=1;whiteSpace=wrap;html=1;size=25;verticalAlign=top;align=center;strokeWidth=4;fillColor=#ffcccc;strokeColor=#36393d;" parent="1" vertex="1">
          <mxGeometry x="1585" y="2065" width="330" height="160" as="geometry" />
        </mxCell>
        <mxCell id="GhDUsiYMYTLdvU3jQH11-51" value="&lt;font style=&quot;font-size: 32px;&quot;&gt;Acessar Outro Perfil&lt;br&gt;&lt;/font&gt;" style="ellipse;whiteSpace=wrap;html=1;strokeWidth=3;fillColor=#ffff88;strokeColor=#36393d;" parent="1" vertex="1">
          <mxGeometry x="965" y="1675" width="320" height="160" as="geometry" />
        </mxCell>
        <mxCell id="GhDUsiYMYTLdvU3jQH11-52" value="&lt;font style=&quot;font-size: 32px;&quot;&gt;&amp;lt;&amp;lt;extend&amp;gt;&amp;gt;&lt;/font&gt;" style="html=1;verticalAlign=bottom;labelBackgroundColor=none;endArrow=open;endFill=0;dashed=1;rounded=0;strokeWidth=5;entryX=0.5;entryY=1;entryDx=0;entryDy=0;exitX=0.5;exitY=0;exitDx=0;exitDy=0;" parent="1" source="GhDUsiYMYTLdvU3jQH11-46" target="GhDUsiYMYTLdvU3jQH11-45" edge="1">
          <mxGeometry x="-1" y="-100" width="160" relative="1" as="geometry">
            <mxPoint x="1594.64" y="1835" as="sourcePoint" />
            <mxPoint x="1595" y="1725" as="targetPoint" />
            <mxPoint as="offset" />
          </mxGeometry>
        </mxCell>
        <mxCell id="GhDUsiYMYTLdvU3jQH11-53" value="&lt;font style=&quot;font-size: 32px;&quot;&gt;Seguir Outro Perfil&lt;br&gt;&lt;/font&gt;" style="ellipse;whiteSpace=wrap;html=1;strokeWidth=3;fillColor=#ffff88;strokeColor=#36393d;" parent="1" vertex="1">
          <mxGeometry x="965" y="1895" width="320" height="160" as="geometry" />
        </mxCell>
        <mxCell id="GhDUsiYMYTLdvU3jQH11-54" value="&lt;font style=&quot;font-size: 32px;&quot;&gt;&amp;lt;&amp;lt;extend&amp;gt;&amp;gt;&lt;/font&gt;" style="html=1;verticalAlign=bottom;labelBackgroundColor=none;endArrow=open;endFill=0;dashed=1;rounded=0;strokeWidth=5;entryX=0.5;entryY=1;entryDx=0;entryDy=0;exitX=0.5;exitY=0;exitDx=0;exitDy=0;" parent="1" source="GhDUsiYMYTLdvU3jQH11-53" target="GhDUsiYMYTLdvU3jQH11-51" edge="1">
          <mxGeometry x="-1" y="-100" width="160" relative="1" as="geometry">
            <mxPoint x="1095" y="1855" as="sourcePoint" />
            <mxPoint x="1555" y="1645" as="targetPoint" />
            <mxPoint as="offset" />
          </mxGeometry>
        </mxCell>
        <mxCell id="GhDUsiYMYTLdvU3jQH11-55" value="&lt;font style=&quot;font-size: 32px;&quot;&gt;Deixar de Seguir&lt;br&gt;&lt;/font&gt;" style="ellipse;whiteSpace=wrap;html=1;strokeWidth=3;fillColor=#ffff88;strokeColor=#36393d;" parent="1" vertex="1">
          <mxGeometry x="965" y="2155" width="320" height="160" as="geometry" />
        </mxCell>
        <mxCell id="GhDUsiYMYTLdvU3jQH11-56" value="&lt;font style=&quot;font-size: 32px;&quot;&gt;&amp;lt;&amp;lt;extend&amp;gt;&amp;gt;&lt;/font&gt;" style="html=1;verticalAlign=bottom;labelBackgroundColor=none;endArrow=open;endFill=0;dashed=1;rounded=0;strokeWidth=5;entryX=0.5;entryY=1;entryDx=0;entryDy=0;exitX=0.5;exitY=0;exitDx=0;exitDy=0;" parent="1" source="GhDUsiYMYTLdvU3jQH11-55" target="GhDUsiYMYTLdvU3jQH11-53" edge="1">
          <mxGeometry x="-1" y="-100" width="160" relative="1" as="geometry">
            <mxPoint x="1065" y="2115" as="sourcePoint" />
            <mxPoint x="1124.52" y="2115" as="targetPoint" />
            <mxPoint as="offset" />
          </mxGeometry>
        </mxCell>
        <mxCell id="GhDUsiYMYTLdvU3jQH11-71" value="&lt;font style=&quot;font-size: 32px;&quot;&gt;&amp;lt;&amp;lt;extend&amp;gt;&amp;gt;&lt;/font&gt;" style="html=1;verticalAlign=bottom;labelBackgroundColor=none;endArrow=open;endFill=0;dashed=1;rounded=0;strokeWidth=5;exitX=0.5;exitY=0;exitDx=0;exitDy=0;" parent="1" edge="1">
          <mxGeometry x="-0.9491" y="99" width="160" relative="1" as="geometry">
            <mxPoint x="1124.41" y="1385" as="sourcePoint" />
            <mxPoint x="1124" y="1345" as="targetPoint" />
            <mxPoint as="offset" />
          </mxGeometry>
        </mxCell>
        <mxCell id="GhDUsiYMYTLdvU3jQH11-72" value="" style="endArrow=none;dashed=1;html=1;rounded=0;strokeWidth=5;entryX=0;entryY=0.5;entryDx=0;entryDy=0;entryPerimeter=0;" parent="1" target="GhDUsiYMYTLdvU3jQH11-73" edge="1">
          <mxGeometry width="50" height="50" relative="1" as="geometry">
            <mxPoint x="1125" y="1375" as="sourcePoint" />
            <mxPoint x="855" y="1625" as="targetPoint" />
            <Array as="points">
              <mxPoint x="1365" y="1375" />
              <mxPoint x="1365" y="1235" />
            </Array>
          </mxGeometry>
        </mxCell>
        <mxCell id="GhDUsiYMYTLdvU3jQH11-73" value="&lt;font style=&quot;font-size: 32px;&quot;&gt;(Caso o Usuário já tenha Criado uma Postagem)&lt;br&gt;&lt;/font&gt;" style="shape=note2;boundedLbl=1;whiteSpace=wrap;html=1;size=25;verticalAlign=top;align=center;strokeWidth=4;fillColor=#ffcccc;strokeColor=#36393d;" parent="1" vertex="1">
          <mxGeometry x="1420" y="1155" width="330" height="160" as="geometry" />
        </mxCell>
        <mxCell id="GhDUsiYMYTLdvU3jQH11-78" value="&lt;font style=&quot;font-size: 20px;&quot;&gt;&amp;lt;&amp;lt;process&amp;gt;&amp;gt;&lt;/font&gt;" style="text;html=1;align=center;verticalAlign=middle;resizable=0;points=[];autosize=1;strokeColor=none;fillColor=none;" parent="1" vertex="1">
          <mxGeometry x="1055" y="1205" width="140" height="40" as="geometry" />
        </mxCell>
        <mxCell id="GhDUsiYMYTLdvU3jQH11-80" value="&lt;font style=&quot;font-size: 20px;&quot;&gt;&amp;lt;&amp;lt;process&amp;gt;&amp;gt;&lt;/font&gt;" style="text;html=1;align=center;verticalAlign=middle;resizable=0;points=[];autosize=1;strokeColor=none;fillColor=none;" parent="1" vertex="1">
          <mxGeometry x="1055" y="1405" width="140" height="40" as="geometry" />
        </mxCell>
        <mxCell id="GhDUsiYMYTLdvU3jQH11-81" value="&lt;font style=&quot;font-size: 20px;&quot;&gt;&amp;lt;&amp;lt;process&amp;gt;&amp;gt;&lt;/font&gt;" style="text;html=1;align=center;verticalAlign=middle;resizable=0;points=[];autosize=1;strokeColor=none;fillColor=none;" parent="1" vertex="1">
          <mxGeometry x="1515" y="1575" width="140" height="40" as="geometry" />
        </mxCell>
        <mxCell id="GhDUsiYMYTLdvU3jQH11-82" value="&lt;font style=&quot;font-size: 20px;&quot;&gt;&amp;lt;&amp;lt;process&amp;gt;&amp;gt;&lt;/font&gt;" style="text;html=1;align=center;verticalAlign=middle;resizable=0;points=[];autosize=1;strokeColor=none;fillColor=none;" parent="1" vertex="1">
          <mxGeometry x="1515" y="1855" width="140" height="40" as="geometry" />
        </mxCell>
        <mxCell id="GhDUsiYMYTLdvU3jQH11-83" value="&lt;font style=&quot;font-size: 20px;&quot;&gt;&amp;lt;&amp;lt;process&amp;gt;&amp;gt;&lt;/font&gt;" style="text;html=1;align=center;verticalAlign=middle;resizable=0;points=[];autosize=1;strokeColor=none;fillColor=none;" parent="1" vertex="1">
          <mxGeometry x="1055" y="1915" width="140" height="40" as="geometry" />
        </mxCell>
        <mxCell id="GhDUsiYMYTLdvU3jQH11-84" value="&lt;font style=&quot;font-size: 20px;&quot;&gt;&amp;lt;&amp;lt;process&amp;gt;&amp;gt;&lt;/font&gt;" style="text;html=1;align=center;verticalAlign=middle;resizable=0;points=[];autosize=1;strokeColor=none;fillColor=none;" parent="1" vertex="1">
          <mxGeometry x="1055" y="2175" width="140" height="40" as="geometry" />
        </mxCell>
        <mxCell id="GhDUsiYMYTLdvU3jQH11-114" value="" style="endArrow=none;html=1;rounded=0;strokeWidth=5;entryX=0.045;entryY=0.713;entryDx=0;entryDy=0;entryPerimeter=0;" parent="1" target="GhDUsiYMYTLdvU3jQH11-45" edge="1">
          <mxGeometry width="50" height="50" relative="1" as="geometry">
            <mxPoint x="320" y="2090" as="sourcePoint" />
            <mxPoint x="1425" y="1960" as="targetPoint" />
            <Array as="points">
              <mxPoint x="320" y="2385" />
              <mxPoint x="1405" y="2385" />
              <mxPoint x="1405" y="1709" />
            </Array>
          </mxGeometry>
        </mxCell>
        <mxCell id="GhDUsiYMYTLdvU3jQH11-118" value="" style="endArrow=none;html=1;rounded=0;strokeWidth=5;entryX=0.282;entryY=0.951;entryDx=0;entryDy=0;entryPerimeter=0;" parent="1" target="GhDUsiYMYTLdvU3jQH11-36" edge="1">
          <mxGeometry width="50" height="50" relative="1" as="geometry">
            <mxPoint x="410" y="2090" as="sourcePoint" />
            <mxPoint x="1490" y="1500" as="targetPoint" />
            <Array as="points">
              <mxPoint x="410" y="2330" />
              <mxPoint x="1345" y="2335" />
              <mxPoint x="1350" y="1655" />
            </Array>
          </mxGeometry>
        </mxCell>
        <mxCell id="GhDUsiYMYTLdvU3jQH11-125" value="" style="endArrow=none;html=1;rounded=0;strokeWidth=5;" parent="1" edge="1">
          <mxGeometry width="50" height="50" relative="1" as="geometry">
            <mxPoint x="1285" y="1465" as="sourcePoint" />
            <mxPoint x="2220" y="1680" as="targetPoint" />
            <Array as="points">
              <mxPoint x="1395" y="1465" />
              <mxPoint x="1395" y="1335" />
              <mxPoint x="2220" y="1335" />
            </Array>
          </mxGeometry>
        </mxCell>
        <mxCell id="GhDUsiYMYTLdvU3jQH11-141" value="&lt;font style=&quot;font-size: 32px;&quot;&gt;Diagrama de Casos de Uso - &lt;b&gt;Postagens &amp;amp; Conteúdo&lt;br&gt;&lt;/b&gt;&lt;/font&gt;" style="text;html=1;align=center;verticalAlign=middle;resizable=0;points=[];autosize=1;strokeColor=none;fillColor=none;" parent="1" vertex="1">
          <mxGeometry x="875" y="1070" width="800" height="50" as="geometry" />
        </mxCell>
        <mxCell id="GhDUsiYMYTLdvU3jQH11-108" value="" style="endArrow=none;html=1;rounded=0;strokeWidth=5;entryX=0;entryY=0.5;entryDx=0;entryDy=0;" parent="1" target="GhDUsiYMYTLdvU3jQH11-38" edge="1">
          <mxGeometry width="50" height="50" relative="1" as="geometry">
            <mxPoint x="330" y="1680" as="sourcePoint" />
            <mxPoint x="1080" y="1655" as="targetPoint" />
            <Array as="points">
              <mxPoint x="330" y="1270" />
            </Array>
          </mxGeometry>
        </mxCell>
        <mxCell id="GhDUsiYMYTLdvU3jQH11-109" value="" style="endArrow=none;html=1;rounded=0;strokeWidth=5;entryX=0.007;entryY=0.57;entryDx=0;entryDy=0;entryPerimeter=0;" parent="1" target="GhDUsiYMYTLdvU3jQH11-43" edge="1">
          <mxGeometry width="50" height="50" relative="1" as="geometry">
            <mxPoint x="430" y="1790" as="sourcePoint" />
            <mxPoint x="925" y="1445" as="targetPoint" />
            <Array as="points">
              <mxPoint x="520" y="1790" />
              <mxPoint x="520" y="1479" />
            </Array>
          </mxGeometry>
        </mxCell>
        <mxCell id="GhDUsiYMYTLdvU3jQH11-110" value="" style="endArrow=none;html=1;rounded=0;strokeWidth=5;entryX=0;entryY=0.5;entryDx=0;entryDy=0;" parent="1" target="GhDUsiYMYTLdvU3jQH11-51" edge="1">
          <mxGeometry width="50" height="50" relative="1" as="geometry">
            <mxPoint x="430" y="1850" as="sourcePoint" />
            <mxPoint x="982" y="1519" as="targetPoint" />
            <Array as="points">
              <mxPoint x="860" y="1850" />
              <mxPoint x="860" y="1755" />
            </Array>
          </mxGeometry>
        </mxCell>
        <mxCell id="GhDUsiYMYTLdvU3jQH11-111" value="" style="endArrow=none;html=1;rounded=0;strokeWidth=5;entryX=0;entryY=0.5;entryDx=0;entryDy=0;" parent="1" target="GhDUsiYMYTLdvU3jQH11-53" edge="1">
          <mxGeometry width="50" height="50" relative="1" as="geometry">
            <mxPoint x="430" y="1920" as="sourcePoint" />
            <mxPoint x="980" y="1845" as="targetPoint" />
            <Array as="points">
              <mxPoint x="880" y="1920" />
              <mxPoint x="880" y="1975" />
            </Array>
          </mxGeometry>
        </mxCell>
        <mxCell id="GhDUsiYMYTLdvU3jQH11-112" value="" style="endArrow=none;html=1;rounded=0;strokeWidth=5;entryX=0;entryY=0.5;entryDx=0;entryDy=0;" parent="1" target="GhDUsiYMYTLdvU3jQH11-55" edge="1">
          <mxGeometry width="50" height="50" relative="1" as="geometry">
            <mxPoint x="430" y="2000" as="sourcePoint" />
            <mxPoint x="800" y="2319" as="targetPoint" />
            <Array as="points">
              <mxPoint x="530" y="2000" />
              <mxPoint x="530" y="2235" />
            </Array>
          </mxGeometry>
        </mxCell>
        <mxCell id="GhDUsiYMYTLdvU3jQH11-113" value="" style="endArrow=none;html=1;rounded=0;strokeWidth=5;" parent="1" edge="1">
          <mxGeometry width="50" height="50" relative="1" as="geometry">
            <mxPoint x="220" y="2090" as="sourcePoint" />
            <mxPoint x="1550" y="1993" as="targetPoint" />
            <Array as="points">
              <mxPoint x="220" y="2450" />
              <mxPoint x="1550" y="2445" />
            </Array>
          </mxGeometry>
        </mxCell>
        <mxCell id="GhDUsiYMYTLdvU3jQH11-57" value="" style="endArrow=none;dashed=1;html=1;rounded=0;strokeWidth=5;entryX=1.002;entryY=0.383;entryDx=0;entryDy=0;entryPerimeter=0;" parent="1" target="GhDUsiYMYTLdvU3jQH11-58" edge="1">
          <mxGeometry width="50" height="50" relative="1" as="geometry">
            <mxPoint x="1125" y="2085" as="sourcePoint" />
            <mxPoint x="1395" y="2365" as="targetPoint" />
            <Array as="points" />
          </mxGeometry>
        </mxCell>
        <mxCell id="GhDUsiYMYTLdvU3jQH11-156" value="&lt;font style=&quot;font-size: 32px;&quot;&gt;&lt;b&gt;OpenVoice &lt;/b&gt;- 1.0.0&lt;br&gt;&lt;/font&gt;" style="text;html=1;align=center;verticalAlign=middle;resizable=0;points=[];autosize=1;strokeColor=none;fillColor=none;" parent="1" vertex="1">
          <mxGeometry x="1130" y="2500" width="290" height="50" as="geometry" />
        </mxCell>
        <mxCell id="GhDUsiYMYTLdvU3jQH11-75" value="" style="rounded=0;whiteSpace=wrap;html=1;fillColor=#D6D6D6;strokeWidth=5;container=0;" parent="1" vertex="1">
          <mxGeometry x="675" y="260" width="1200" height="670" as="geometry" />
        </mxCell>
        <mxCell id="GhDUsiYMYTLdvU3jQH11-1" value="&lt;font style=&quot;font-size: 32px;&quot;&gt;Usuário&lt;/font&gt;" style="shape=umlActor;verticalLabelPosition=bottom;verticalAlign=top;html=1;strokeWidth=3;container=0;" parent="1" vertex="1">
          <mxGeometry x="210" y="620" width="160" height="320" as="geometry" />
        </mxCell>
        <mxCell id="GhDUsiYMYTLdvU3jQH11-5" value="&lt;font style=&quot;font-size: 32px;&quot;&gt;Administrador&lt;/font&gt;" style="shape=umlActor;verticalLabelPosition=bottom;verticalAlign=top;html=1;strokeWidth=3;container=0;" parent="1" vertex="1">
          <mxGeometry x="2180" y="620" width="160" height="320" as="geometry" />
        </mxCell>
        <mxCell id="GhDUsiYMYTLdvU3jQH11-4" value="&lt;font style=&quot;font-size: 32px;&quot;&gt;Realizar Login&lt;br&gt;&lt;/font&gt;" style="ellipse;whiteSpace=wrap;html=1;strokeWidth=3;fillColor=#ffff88;strokeColor=#36393d;container=0;" parent="1" vertex="1">
          <mxGeometry x="1115" y="700" width="320" height="160" as="geometry" />
        </mxCell>
        <mxCell id="GhDUsiYMYTLdvU3jQH11-7" value="&lt;font style=&quot;font-size: 32px;&quot;&gt;Realizar Registro&lt;br&gt;&lt;/font&gt;" style="ellipse;whiteSpace=wrap;html=1;strokeWidth=3;fillColor=#cce5ff;strokeColor=#36393d;container=0;" parent="1" vertex="1">
          <mxGeometry x="1115" y="360" width="320" height="160" as="geometry" />
        </mxCell>
        <mxCell id="GhDUsiYMYTLdvU3jQH11-16" value="&lt;font style=&quot;font-size: 32px;&quot;&gt;&amp;lt;&amp;lt;extend&amp;gt;&amp;gt;&lt;/font&gt;" style="html=1;verticalAlign=bottom;labelBackgroundColor=none;endArrow=open;endFill=0;dashed=1;rounded=0;strokeWidth=5;exitX=0.5;exitY=1;exitDx=0;exitDy=0;entryX=0.5;entryY=0;entryDx=0;entryDy=0;" parent="1" source="GhDUsiYMYTLdvU3jQH11-7" target="GhDUsiYMYTLdvU3jQH11-4" edge="1">
          <mxGeometry x="-0.5294" y="100" width="160" relative="1" as="geometry">
            <mxPoint x="1175" y="620" as="sourcePoint" />
            <mxPoint x="1305" y="700" as="targetPoint" />
            <mxPoint as="offset" />
          </mxGeometry>
        </mxCell>
        <mxCell id="GhDUsiYMYTLdvU3jQH11-25" value="&lt;div align=&quot;center&quot;&gt;&lt;font style=&quot;font-size: 32px;&quot;&gt;(Caso o Usuário ainda não esteja Cadastrado)&lt;/font&gt;&lt;br&gt;&lt;/div&gt;" style="shape=note2;boundedLbl=1;whiteSpace=wrap;html=1;size=25;verticalAlign=top;align=center;strokeWidth=4;fillColor=#ffcccc;strokeColor=#36393d;container=0;" parent="1" vertex="1">
          <mxGeometry x="690" y="370" width="330" height="160" as="geometry" />
        </mxCell>
        <mxCell id="GhDUsiYMYTLdvU3jQH11-32" value="" style="endArrow=none;dashed=1;html=1;rounded=0;strokeWidth=5;" parent="1" edge="1">
          <mxGeometry width="50" height="50" relative="1" as="geometry">
            <mxPoint x="1025" y="460" as="sourcePoint" />
            <mxPoint x="1270" y="620" as="targetPoint" />
            <Array as="points">
              <mxPoint x="1105" y="460" />
              <mxPoint x="1105" y="620" />
            </Array>
          </mxGeometry>
        </mxCell>
        <mxCell id="GhDUsiYMYTLdvU3jQH11-34" value="&lt;font style=&quot;font-size: 20px;&quot;&gt;&amp;lt;&amp;lt;process&amp;gt;&amp;gt;&lt;/font&gt;" style="text;html=1;align=center;verticalAlign=middle;resizable=0;points=[];autosize=1;strokeColor=none;fillColor=none;container=0;" parent="1" vertex="1">
          <mxGeometry x="1205" y="720" width="140" height="40" as="geometry" />
        </mxCell>
        <mxCell id="GhDUsiYMYTLdvU3jQH11-35" value="&lt;font style=&quot;font-size: 20px;&quot;&gt;&amp;lt;&amp;lt;process&amp;gt;&amp;gt;&lt;/font&gt;" style="text;html=1;align=center;verticalAlign=middle;resizable=0;points=[];autosize=1;strokeColor=none;fillColor=none;container=0;" parent="1" vertex="1">
          <mxGeometry x="1205" y="380" width="140" height="40" as="geometry" />
        </mxCell>
        <mxCell id="GhDUsiYMYTLdvU3jQH11-98" value="&lt;font style=&quot;font-size: 32px;&quot;&gt;Diagrama de Casos de Uso - &lt;b&gt;Registro &amp;amp; Login&lt;br&gt;&lt;/b&gt;&lt;/font&gt;" style="text;html=1;align=center;verticalAlign=middle;resizable=0;points=[];autosize=1;strokeColor=none;fillColor=none;container=0;" parent="1" vertex="1">
          <mxGeometry x="927" y="277" width="696" height="50" as="geometry" />
        </mxCell>
        <mxCell id="GhDUsiYMYTLdvU3jQH11-153" value="&lt;font style=&quot;font-size: 32px;&quot;&gt;&lt;b&gt;OpenVoice &lt;/b&gt;- 1.0.0&lt;br&gt;&lt;/font&gt;" style="text;html=1;align=center;verticalAlign=middle;resizable=0;points=[];autosize=1;strokeColor=none;fillColor=none;container=0;" parent="1" vertex="1">
          <mxGeometry x="1130" y="880" width="290" height="50" as="geometry" />
        </mxCell>
        <mxCell id="GhDUsiYMYTLdvU3jQH11-167" value="&lt;font style=&quot;font-size: 32px;&quot;&gt;Administrador&lt;/font&gt;" style="shape=umlActor;verticalLabelPosition=bottom;verticalAlign=top;html=1;strokeWidth=3;container=0;" parent="1" vertex="1">
          <mxGeometry x="2150" y="2729" width="160" height="320" as="geometry" />
        </mxCell>
        <mxCell id="GhDUsiYMYTLdvU3jQH11-126" value="" style="rounded=0;whiteSpace=wrap;html=1;fillColor=#D6D6D6;strokeWidth=5;container=0;" parent="1" vertex="1">
          <mxGeometry x="675" y="2609" width="1200" height="630" as="geometry" />
        </mxCell>
        <mxCell id="GhDUsiYMYTLdvU3jQH11-59" value="&lt;font style=&quot;font-size: 32px;&quot;&gt;Acessar O Meu Perfil&lt;br&gt;&lt;/font&gt;" style="ellipse;whiteSpace=wrap;html=1;strokeWidth=3;fillColor=#ffff88;strokeColor=#36393d;container=0;" parent="1" vertex="1">
          <mxGeometry x="1115" y="2709" width="320" height="160" as="geometry" />
        </mxCell>
        <mxCell id="GhDUsiYMYTLdvU3jQH11-63" value="&lt;font style=&quot;font-size: 32px;&quot;&gt;Acessar As Próprias Postagens&lt;br&gt;&lt;/font&gt;" style="ellipse;whiteSpace=wrap;html=1;strokeWidth=3;fillColor=#ffff88;strokeColor=#36393d;container=0;" parent="1" vertex="1">
          <mxGeometry x="785" y="2889" width="330" height="160" as="geometry" />
        </mxCell>
        <mxCell id="GhDUsiYMYTLdvU3jQH11-66" value="&lt;font style=&quot;font-size: 32px;&quot;&gt;&amp;lt;&amp;lt;extend&amp;gt;&amp;gt;&lt;/font&gt;" style="html=1;verticalAlign=bottom;labelBackgroundColor=none;endArrow=none;endFill=0;dashed=1;rounded=0;strokeWidth=5;entryX=0.5;entryY=0;entryDx=0;entryDy=0;startArrow=open;startFill=0;exitX=0;exitY=0.5;exitDx=0;exitDy=0;" parent="1" source="GhDUsiYMYTLdvU3jQH11-59" target="GhDUsiYMYTLdvU3jQH11-63" edge="1">
          <mxGeometry x="-0.0941" y="74" width="160" relative="1" as="geometry">
            <mxPoint x="2389.6" y="2909" as="sourcePoint" />
            <mxPoint x="2389.83" y="2959" as="targetPoint" />
            <mxPoint as="offset" />
          </mxGeometry>
        </mxCell>
        <mxCell id="GhDUsiYMYTLdvU3jQH11-69" value="&lt;font style=&quot;font-size: 32px;&quot;&gt;Alterar Foto de Perfil&lt;br&gt;&lt;/font&gt;" style="ellipse;whiteSpace=wrap;html=1;strokeWidth=3;fillColor=#ffff88;strokeColor=#36393d;container=0;" parent="1" vertex="1">
          <mxGeometry x="1435" y="2889" width="320" height="160" as="geometry" />
        </mxCell>
        <mxCell id="GhDUsiYMYTLdvU3jQH11-77" value="&lt;font style=&quot;font-size: 20px;&quot;&gt;&amp;lt;&amp;lt;process&amp;gt;&amp;gt;&lt;/font&gt;" style="text;html=1;align=center;verticalAlign=middle;resizable=0;points=[];autosize=1;strokeColor=none;fillColor=none;container=0;" parent="1" vertex="1">
          <mxGeometry x="1525" y="2904" width="140" height="40" as="geometry" />
        </mxCell>
        <mxCell id="GhDUsiYMYTLdvU3jQH11-128" value="&lt;font style=&quot;font-size: 32px;&quot;&gt;&amp;lt;&amp;lt;extend&amp;gt;&amp;gt;&lt;/font&gt;" style="html=1;verticalAlign=bottom;labelBackgroundColor=none;endArrow=none;endFill=0;dashed=1;rounded=0;strokeWidth=5;entryX=0.5;entryY=0;entryDx=0;entryDy=0;startArrow=open;startFill=0;exitX=1;exitY=0.5;exitDx=0;exitDy=0;" parent="1" source="GhDUsiYMYTLdvU3jQH11-59" target="GhDUsiYMYTLdvU3jQH11-69" edge="1">
          <mxGeometry x="-0.1509" y="-78" width="160" relative="1" as="geometry">
            <mxPoint x="1460" y="2837" as="sourcePoint" />
            <mxPoint x="1295" y="2942" as="targetPoint" />
            <mxPoint as="offset" />
          </mxGeometry>
        </mxCell>
        <mxCell id="GhDUsiYMYTLdvU3jQH11-157" value="&lt;font style=&quot;font-size: 32px;&quot;&gt;Diagrama de Casos de Uso - &lt;b&gt;Acessar o Meu Perfil&lt;br&gt;&lt;/b&gt;&lt;/font&gt;" style="text;html=1;align=center;verticalAlign=middle;resizable=0;points=[];autosize=1;strokeColor=none;fillColor=none;container=0;" parent="1" vertex="1">
          <mxGeometry x="904" y="2629" width="753" height="50" as="geometry" />
        </mxCell>
        <mxCell id="GhDUsiYMYTLdvU3jQH11-158" value="&lt;font style=&quot;font-size: 32px;&quot;&gt;&lt;b&gt;OpenVoice &lt;/b&gt;- 1.0.0&lt;br&gt;&lt;/font&gt;" style="text;html=1;align=center;verticalAlign=middle;resizable=0;points=[];autosize=1;strokeColor=none;fillColor=none;container=0;" parent="1" vertex="1">
          <mxGeometry x="1120" y="3189" width="290" height="50" as="geometry" />
        </mxCell>
        <mxCell id="GhDUsiYMYTLdvU3jQH11-159" value="&lt;font style=&quot;font-size: 32px;&quot;&gt;Usuário&lt;/font&gt;" style="shape=umlActor;verticalLabelPosition=bottom;verticalAlign=top;html=1;strokeWidth=3;container=0;" parent="1" vertex="1">
          <mxGeometry x="250" y="2764" width="160" height="320" as="geometry" />
        </mxCell>
        <mxCell id="GhDUsiYMYTLdvU3jQH11-161" value="" style="endArrow=none;html=1;rounded=0;strokeWidth=5;entryX=0.5;entryY=0;entryDx=0;entryDy=0;" parent="1" target="GhDUsiYMYTLdvU3jQH11-59" edge="1">
          <mxGeometry width="50" height="50" relative="1" as="geometry">
            <mxPoint x="330" y="2740" as="sourcePoint" />
            <mxPoint x="520" y="2869" as="targetPoint" />
            <Array as="points">
              <mxPoint x="330" y="2690" />
              <mxPoint x="1275" y="2690" />
            </Array>
          </mxGeometry>
        </mxCell>
        <mxCell id="GhDUsiYMYTLdvU3jQH11-162" value="" style="endArrow=none;html=1;rounded=0;strokeWidth=5;entryX=0;entryY=0.5;entryDx=0;entryDy=0;" parent="1" edge="1">
          <mxGeometry width="50" height="50" relative="1" as="geometry">
            <mxPoint x="420" y="2969" as="sourcePoint" />
            <mxPoint x="784.9999999999998" y="2968.5000000000005" as="targetPoint" />
            <Array as="points" />
          </mxGeometry>
        </mxCell>
        <mxCell id="GhDUsiYMYTLdvU3jQH11-163" value="" style="endArrow=none;html=1;rounded=0;strokeWidth=5;entryX=0.5;entryY=1;entryDx=0;entryDy=0;" parent="1" target="GhDUsiYMYTLdvU3jQH11-69" edge="1">
          <mxGeometry width="50" height="50" relative="1" as="geometry">
            <mxPoint x="430" y="3080" as="sourcePoint" />
            <mxPoint x="510" y="3239" as="targetPoint" />
            <Array as="points">
              <mxPoint x="1595" y="3080" />
            </Array>
          </mxGeometry>
        </mxCell>
        <mxCell id="9GBIO43umf17iu3eryOD-3" value="" style="endArrow=none;html=1;rounded=0;strokeWidth=5;entryX=0;entryY=0.5;entryDx=0;entryDy=0;" edge="1" parent="1" target="GhDUsiYMYTLdvU3jQH11-4">
          <mxGeometry width="50" height="50" relative="1" as="geometry">
            <mxPoint x="370" y="780" as="sourcePoint" />
            <mxPoint x="550" y="740" as="targetPoint" />
          </mxGeometry>
        </mxCell>
        <mxCell id="9GBIO43umf17iu3eryOD-5" value="" style="endArrow=none;html=1;rounded=0;strokeWidth=5;entryX=0;entryY=0.5;entryDx=0;entryDy=0;" edge="1" parent="1">
          <mxGeometry width="50" height="50" relative="1" as="geometry">
            <mxPoint x="1435" y="779.38" as="sourcePoint" />
            <mxPoint x="2180" y="779.38" as="targetPoint" />
          </mxGeometry>
        </mxCell>
        <mxCell id="9GBIO43umf17iu3eryOD-7" value="" style="endArrow=none;html=1;rounded=0;strokeWidth=5;" edge="1" parent="1">
          <mxGeometry width="50" height="50" relative="1" as="geometry">
            <mxPoint x="1755" y="2969.1" as="sourcePoint" />
            <mxPoint x="2140" y="2970" as="targetPoint" />
            <Array as="points" />
          </mxGeometry>
        </mxCell>
      </root>
    </mxGraphModel>
  </diagram>
</mxfile>
